# xmcd
#
# Track frame offsets:
#	150
#	15822
#	34825
#	50088
#	67204
#	80780
#	97639
#	114227
#	130413
#	149826
#	164875
#	179854
#
# Disc length: 2607 seconds
#
# Revision: 1
# Processed by: cddbd v1.5.2PL0 Copyright (c) Steve Scherf et al.
# Submitted via: audiograbber 1.83.01
#
DISCID=b30a2d0c
DTITLE=Varios - Romances
DYEAR=1900
DGENRE=Bolero
TTITLE0=La Barca
TTITLE1=Inolvidable
TTITLE2=No me platiques mas
TTITLE3=La mentira
TTITLE4=Cómo
TTITLE5=Usted
TTITLE6=No sé tu
TTITLE7=Cuando vuelva a tu lado
TTITLE8=Te extraño
TTITLE9=La puerta
TTITLE10=Contigo en la Distancia
TTITLE11=Mucho corazón
EXTD=
EXTT0=
EXTT1=
EXTT2=
EXTT3=
EXTT4=
EXTT5=
EXTT6=
EXTT7=
EXTT8=
EXTT9=
EXTT10=
EXTT11=
PLAYORDER=
